<?xml version="1.0" standalone="no"?><!DOCTYPE svg PUBLIC "-//W3C//DTD SVG 1.1//EN" "http://www.w3.org/Graphics/SVG/1.1/DTD/svg11.dtd"><svg class="icon" width="64px" height="64.00px" viewBox="0 0 1024 1024" version="1.1" xmlns="http://www.w3.org/2000/svg"><path fill="#8a8a8a" d="M961.024 258.048c-7.68-9.216-18.432-14.848-30.72-15.36h-0.512l-595.456 2.56c-11.264 0-20.48 9.216-20.48 20.48s9.216 20.48 20.48 20.48l594.432-2.56h0.512l-54.272 399.36H358.4s-0.512-0.512-0.512 0l-151.04-558.08c-5.12-17.92-20.992-30.208-39.424-30.208H74.24c-11.264 0-20.48 9.216-20.48 20.48s9.216 20.48 20.48 20.48h92.672l151.04 558.592c5.12 17.92 21.504 30.208 39.424 30.208h517.632c19.968 0 36.864-14.336 39.936-34.816l54.272-399.36c2.56-11.264-1.024-23.04-8.192-32.256z"  /><path fill="#8a8a8a" d="M766.464 641.024c9.216 0 17.92-6.656 19.968-16.384l37.376-174.592c2.56-11.264-4.608-22.016-15.872-24.064-11.264-2.56-22.016 4.608-24.064 15.872l-37.376 174.592c-2.56 11.264 4.608 22.016 15.872 24.064 1.024 0.512 2.56 0.512 4.096 0.512z"  /><path fill="#8a8a8a" d="M322.56 337.92m-20.48 0a20.48 20.48 0 1 0 40.96 0 20.48 20.48 0 1 0-40.96 0Z"  /><path fill="#8a8a8a" d="M377.856 797.696c-16.896 16.896-26.624 39.424-27.136 63.488-0.512 24.064 8.704 46.592 25.6 63.488 16.896 16.896 39.424 25.6 61.952 25.6 23.04 0 46.592-9.216 64.512-27.136 35.328-35.328 35.84-92.16 1.536-126.464-34.304-35.328-91.136-34.304-126.464 1.024z m96.256 96.256c-19.456 19.456-50.176 19.968-68.608 1.536-8.704-8.704-13.824-20.992-13.312-33.792 0-13.312 5.632-25.6 14.848-34.816 9.728-9.728 23.04-14.848 35.84-14.848 12.288 0 24.064 4.608 33.28 13.312 17.92 18.432 17.408 49.152-2.048 68.608zM788.992 770.56c-24.064 0.512-46.08 9.728-63.488 27.136-35.328 35.328-35.84 92.16-1.536 126.464 16.384 16.384 38.4 25.6 61.952 25.6h1.536c24.064-0.512 46.08-9.728 63.488-27.136 35.328-35.328 35.84-92.16 1.536-126.464-16.896-16.896-39.424-26.112-63.488-25.6z m33.28 123.392c-9.216 9.216-22.016 14.848-34.816 14.848-13.312 0.512-25.088-4.608-33.792-13.312-18.432-18.432-17.92-49.664 1.536-68.608 9.216-9.216 22.016-14.848 34.816-14.848h0.512c12.8 0 24.064 4.608 33.28 13.312 18.432 18.432 17.92 49.152-1.536 68.608z"  /></svg>