<?xml version="1.0" standalone="no"?><!DOCTYPE svg PUBLIC "-//W3C//DTD SVG 1.1//EN" "http://www.w3.org/Graphics/SVG/1.1/DTD/svg11.dtd"><svg class="icon" width="64px" height="64.00px" viewBox="0 0 1024 1024" version="1.1" xmlns="http://www.w3.org/2000/svg"><path fill="#8a8a8a" d="M491.52 92.16c0-22.528-18.432-40.96-40.96-40.96H153.6c-56.32 0-102.4 46.08-102.4 102.4v337.92h440.32V92.16z m-40.96 358.4H92.16V153.6c0-33.792 27.648-61.44 61.44-61.44h296.96v358.4zM50.688 573.44v358.4c0 23.04 18.432 41.472 41.472 41.472h358.4c23.04 0 41.472-18.432 41.472-41.472v-399.872H92.16c-23.04 0-41.472 18.432-41.472 41.472z m41.984 0.512h357.376v357.376H92.672v-357.376zM931.84 532.48h-399.36v399.36c0 22.528 18.432 40.96 40.96 40.96h358.4c22.528 0 40.96-18.432 40.96-40.96v-358.4c0-22.528-18.432-40.96-40.96-40.96z m0 399.36h-358.4v-358.4h358.4v358.4z m0 20.48v-20.48 20.48zM931.84 51.2h-358.4c-22.528 0-40.96 18.432-40.96 40.96v399.36h399.36c22.528 0 40.96-18.432 40.96-40.96V92.16c0-22.528-18.432-40.96-40.96-40.96z m0 399.36h-358.4V92.16h358.4v358.4z m0 20.48v-20.48 20.48z"  /><path fill="#8a8a8a" d="M819.2 696.32c-11.264 0-20.48 9.216-20.48 20.48v153.6c0 11.264 9.216 20.48 20.48 20.48s20.48-9.216 20.48-20.48v-153.6c0-11.264-9.216-20.48-20.48-20.48z"  /><path fill="#8a8a8a" d="M153.6 153.6m-20.48 0a20.48 20.48 0 1 0 40.96 0 20.48 20.48 0 1 0-40.96 0Z"  /></svg>