<?xml version="1.0" standalone="no"?><!DOCTYPE svg PUBLIC "-//W3C//DTD SVG 1.1//EN" "http://www.w3.org/Graphics/SVG/1.1/DTD/svg11.dtd"><svg class="icon" width="64px" height="64.00px" viewBox="0 0 1024 1024" version="1.1" xmlns="http://www.w3.org/2000/svg"><path fill="#8a8a8a" d="M512 780c215.4 0 390-174.6 390-390S727.4 0 512 0 122 174.6 122 390s174.6 390 390 390zM206 390c0-41.3 8.1-81.4 24-119.1 15.4-36.4 37.5-69.2 65.6-97.3s60.9-50.2 97.3-65.6c37.7-15.9 77.7-24 119.1-24s81.4 8.1 119.1 24c36.4 15.4 69.2 37.5 97.3 65.6s50.2 60.9 65.6 97.3c15.9 37.7 24 77.7 24 119.1s-8.1 81.4-24 119.1c-15.4 36.4-37.5 69.2-65.6 97.3s-60.9 50.2-97.3 65.6c-37.7 15.9-77.7 24-119.1 24s-81.4-8.1-119.1-24c-36.4-15.4-69.2-37.5-97.3-65.6s-50.2-60.9-65.6-97.3c-15.9-37.7-24-77.8-24-119.1zM0 880h1024v144H0z"  /></svg>